<mxfile host="Electron" agent="Mozilla/5.0 (X11; Linux x86_64) AppleWebKit/537.36 (KHTML, like Gecko) draw.io/27.0.9 Chrome/134.0.6998.205 Electron/35.4.0 Safari/537.36" version="27.0.9">
  <diagram name="Page-1" id="ib0KKrDDxVYF5MeXXiUM">
    <mxGraphModel dx="2066" dy="1203" grid="1" gridSize="10" guides="1" tooltips="1" connect="1" arrows="1" fold="1" page="1" pageScale="1" pageWidth="850" pageHeight="1100" background="#ffffff" math="0" shadow="1">
      <root>
        <mxCell id="0" />
        <mxCell id="1" parent="0" />
        <mxCell id="14" value="Specimen and collection" style="edgeStyle=orthogonalEdgeStyle;endArrow=block;html=1;" parent="1" edge="1">
          <mxGeometry relative="1" as="geometry">
            <mxPoint x="750" y="350" as="targetPoint" />
          </mxGeometry>
        </mxCell>
        <mxCell id="15" value="report delivery offline" style="edgeStyle=orthogonalEdgeStyle;endArrow=block;html=1;" parent="1" edge="1">
          <mxGeometry relative="1" as="geometry">
            <mxPoint x="700" y="380" as="sourcePoint" />
          </mxGeometry>
        </mxCell>
        <mxCell id="sfKcnbmMzuwdX9yF3wZo-21" value="&lt;div&gt;&lt;font style=&quot;font-size: 11px;&quot;&gt;Longboard Rider&lt;/font&gt;&lt;/div&gt;" style="shape=umlActor;verticalLabelPosition=bottom;verticalAlign=top;html=1;outlineConnect=0;strokeColor=#666666;align=center;fontFamily=Helvetica;fontSize=12;fontColor=#333333;labelBackgroundColor=none;fillColor=#f5f5f5;horizontal=1;textShadow=0;" parent="1" vertex="1">
          <mxGeometry x="320" y="520" width="30" height="60" as="geometry" />
        </mxCell>
        <mxCell id="CbTRWkR76J8zcbdZSMRa-18" value="Bionic Boarder App" style="rounded=0;whiteSpace=wrap;html=1;labelPosition=center;verticalLabelPosition=middle;align=center;verticalAlign=top;fillColor=#eeeeee;strokeColor=#36393d;fontSize=16;fontColor=#000000;labelBackgroundColor=none;" parent="1" vertex="1">
          <mxGeometry x="1060" y="280" width="660" height="620" as="geometry" />
        </mxCell>
        <mxCell id="yoxUfFOzrHix0iHAsxGL-21" value="&lt;span style=&quot;font-size: 14px;&quot;&gt;Detect Push&lt;/span&gt;" style="ellipse;whiteSpace=wrap;html=1;fillColor=#ffcc99;strokeColor=#36393d;fontColor=#7EA6E0;" parent="1" vertex="1">
          <mxGeometry x="1250" y="320" width="200" height="80" as="geometry" />
        </mxCell>
        <mxCell id="yoxUfFOzrHix0iHAsxGL-26" value="&lt;span style=&quot;font-size: 14px;&quot;&gt;Detect Braking&lt;/span&gt;" style="ellipse;whiteSpace=wrap;html=1;fillColor=#ffcc99;strokeColor=#36393d;fontColor=#7EA6E0;" parent="1" vertex="1">
          <mxGeometry x="1330" y="600" width="200" height="80" as="geometry" />
        </mxCell>
        <mxCell id="NtJCmM9VllwKPNF-fU6l-15" value="Electric Longboard" style="rounded=0;whiteSpace=wrap;html=1;labelPosition=center;verticalLabelPosition=middle;align=center;verticalAlign=top;fillColor=#eeeeee;strokeColor=#36393d;fontSize=16;fontColor=#000000;labelBackgroundColor=none;" parent="1" vertex="1">
          <mxGeometry x="440" y="280" width="540" height="620" as="geometry" />
        </mxCell>
        <mxCell id="7s3CR-tw4a0rpZwH6RRs-16" value="&lt;span style=&quot;font-size: 14px;&quot;&gt;Push Longboard with&lt;/span&gt;&lt;div&gt;&lt;span style=&quot;font-size: 14px;&quot;&gt;Stick Paddle&lt;/span&gt;&lt;/div&gt;" style="ellipse;whiteSpace=wrap;html=1;fillColor=#ffcc99;strokeColor=#36393d;fontColor=#7EA6E0;" parent="1" vertex="1">
          <mxGeometry x="470" y="320" width="200" height="80" as="geometry" />
        </mxCell>
        <mxCell id="7s3CR-tw4a0rpZwH6RRs-17" value="&lt;font style=&quot;font-size: 14px;&quot;&gt;Slow Down Longboard with&lt;/font&gt;&lt;div&gt;&lt;font style=&quot;font-size: 14px;&quot;&gt;Stick Paddle&lt;/font&gt;&lt;/div&gt;" style="ellipse;whiteSpace=wrap;html=1;fillColor=#ffcc99;strokeColor=#36393d;fontColor=#7EA6E0;" parent="1" vertex="1">
          <mxGeometry x="460" y="730" width="200" height="80" as="geometry" />
        </mxCell>
        <mxCell id="-pO5D620ASrmPBSO5rts-39" style="rounded=0;orthogonalLoop=1;jettySize=auto;html=1;strokeColor=#000000;endArrow=none;startFill=0;shadow=0;jumpStyle=none;" parent="1" source="sfKcnbmMzuwdX9yF3wZo-21" target="7s3CR-tw4a0rpZwH6RRs-16" edge="1">
          <mxGeometry relative="1" as="geometry">
            <mxPoint x="400" y="549.8181818181818" as="sourcePoint" />
            <mxPoint x="550" y="468" as="targetPoint" />
          </mxGeometry>
        </mxCell>
        <mxCell id="7s3CR-tw4a0rpZwH6RRs-18" style="rounded=0;orthogonalLoop=1;jettySize=auto;html=1;strokeColor=#000000;endArrow=none;startFill=0;shadow=0;jumpStyle=none;exitX=1;exitY=1;exitDx=0;exitDy=0;exitPerimeter=0;entryX=0.025;entryY=0.425;entryDx=0;entryDy=0;entryPerimeter=0;" parent="1" source="sfKcnbmMzuwdX9yF3wZo-21" target="7s3CR-tw4a0rpZwH6RRs-17" edge="1">
          <mxGeometry relative="1" as="geometry">
            <mxPoint x="490" y="749" as="sourcePoint" />
            <mxPoint x="903" y="610" as="targetPoint" />
          </mxGeometry>
        </mxCell>
        <mxCell id="7s3CR-tw4a0rpZwH6RRs-21" value="&amp;lt;&amp;lt;include&amp;gt;&amp;gt;" style="endArrow=classic;html=1;rounded=0;fillColor=#f5f5f5;gradientColor=#b3b3b3;strokeColor=#666666;dashed=1;fontColor=#060606;align=center;labelBackgroundColor=none;entryX=0.99;entryY=0.413;entryDx=0;entryDy=0;entryPerimeter=0;" parent="1" source="7s3CR-tw4a0rpZwH6RRs-22" target="7s3CR-tw4a0rpZwH6RRs-23" edge="1">
          <mxGeometry width="50" height="50" relative="1" as="geometry">
            <mxPoint x="1230" y="500" as="sourcePoint" />
            <mxPoint x="1543" y="538" as="targetPoint" />
          </mxGeometry>
        </mxCell>
        <mxCell id="7s3CR-tw4a0rpZwH6RRs-22" value="&lt;span style=&quot;font-size: 14px;&quot;&gt;Acquire Longboard&lt;/span&gt;&lt;div&gt;&lt;span style=&quot;font-size: 14px;&quot;&gt;Motor State&lt;/span&gt;&lt;/div&gt;" style="ellipse;whiteSpace=wrap;html=1;fillColor=#ffcc99;strokeColor=#36393d;fontColor=#7EA6E0;" parent="1" vertex="1">
          <mxGeometry x="1075" y="440" width="200" height="80" as="geometry" />
        </mxCell>
        <mxCell id="7s3CR-tw4a0rpZwH6RRs-23" value="&lt;span style=&quot;font-size: 14px;&quot;&gt;Request from VESC&lt;/span&gt;&lt;div&gt;&lt;span style=&quot;font-size: 14px;&quot;&gt;Controller&lt;/span&gt;&lt;/div&gt;" style="ellipse;whiteSpace=wrap;html=1;fillColor=#ffcc99;strokeColor=#36393d;fontColor=#7EA6E0;" parent="1" vertex="1">
          <mxGeometry x="600" y="430" width="200" height="80" as="geometry" />
        </mxCell>
        <mxCell id="7s3CR-tw4a0rpZwH6RRs-24" value="&amp;lt;&amp;lt;include&amp;gt;&amp;gt;" style="endArrow=classic;html=1;rounded=0;fillColor=#f5f5f5;gradientColor=#b3b3b3;strokeColor=#666666;dashed=1;fontColor=#060606;align=center;labelBackgroundColor=none;entryX=0.435;entryY=-0.025;entryDx=0;entryDy=0;entryPerimeter=0;exitX=0.305;exitY=0.963;exitDx=0;exitDy=0;exitPerimeter=0;" parent="1" source="yoxUfFOzrHix0iHAsxGL-21" target="7s3CR-tw4a0rpZwH6RRs-22" edge="1">
          <mxGeometry width="50" height="50" relative="1" as="geometry">
            <mxPoint x="1240" y="630" as="sourcePoint" />
            <mxPoint x="1553" y="668" as="targetPoint" />
          </mxGeometry>
        </mxCell>
        <mxCell id="7tvb4L8AF0XeGwezENyy-15" value="&lt;span style=&quot;font-size: 14px;&quot;&gt;Acquire Longboard&lt;/span&gt;&lt;div&gt;&lt;span style=&quot;font-size: 14px;&quot;&gt;Acceleration Vector&lt;/span&gt;&lt;/div&gt;" style="ellipse;whiteSpace=wrap;html=1;fillColor=#ffcc99;strokeColor=#36393d;fontColor=#7EA6E0;" parent="1" vertex="1">
          <mxGeometry x="1440" y="450" width="200" height="80" as="geometry" />
        </mxCell>
        <mxCell id="7tvb4L8AF0XeGwezENyy-16" value="&amp;lt;&amp;lt;include&amp;gt;&amp;gt;" style="endArrow=classic;html=1;rounded=0;fillColor=#f5f5f5;gradientColor=#b3b3b3;strokeColor=#666666;dashed=1;fontColor=#060606;align=center;labelBackgroundColor=none;entryX=0.435;entryY=-0.025;entryDx=0;entryDy=0;entryPerimeter=0;" parent="1" source="yoxUfFOzrHix0iHAsxGL-21" target="7tvb4L8AF0XeGwezENyy-15" edge="1">
          <mxGeometry width="50" height="50" relative="1" as="geometry">
            <mxPoint x="1461" y="520" as="sourcePoint" />
            <mxPoint x="1763" y="791" as="targetPoint" />
          </mxGeometry>
        </mxCell>
        <mxCell id="7tvb4L8AF0XeGwezENyy-17" value="&lt;span style=&quot;font-size: 14px;&quot;&gt;Request from IMU Sensor&lt;/span&gt;" style="ellipse;whiteSpace=wrap;html=1;fillColor=#ffcc99;strokeColor=#36393d;fontColor=#7EA6E0;" parent="1" vertex="1">
          <mxGeometry x="600" y="570" width="200" height="80" as="geometry" />
        </mxCell>
        <mxCell id="7tvb4L8AF0XeGwezENyy-19" value="&amp;lt;&amp;lt;include&amp;gt;&amp;gt;" style="endArrow=classic;html=1;rounded=0;fillColor=#f5f5f5;gradientColor=#b3b3b3;strokeColor=#666666;dashed=1;fontColor=#060606;align=center;labelBackgroundColor=none;entryX=1;entryY=0.5;entryDx=0;entryDy=0;exitX=0.065;exitY=0.75;exitDx=0;exitDy=0;exitPerimeter=0;" parent="1" source="7tvb4L8AF0XeGwezENyy-15" target="7tvb4L8AF0XeGwezENyy-17" edge="1">
          <mxGeometry width="50" height="50" relative="1" as="geometry">
            <mxPoint x="1364" y="610" as="sourcePoint" />
            <mxPoint x="1170" y="625" as="targetPoint" />
          </mxGeometry>
        </mxCell>
        <mxCell id="7tvb4L8AF0XeGwezENyy-20" value="&amp;lt;&amp;lt;include&amp;gt;&amp;gt;" style="endArrow=classic;html=1;rounded=0;fillColor=#f5f5f5;gradientColor=#b3b3b3;strokeColor=#666666;dashed=1;fontColor=#060606;align=center;labelBackgroundColor=none;entryX=0.65;entryY=0.95;entryDx=0;entryDy=0;entryPerimeter=0;exitX=0.025;exitY=0.4;exitDx=0;exitDy=0;exitPerimeter=0;" parent="1" source="yoxUfFOzrHix0iHAsxGL-26" target="7s3CR-tw4a0rpZwH6RRs-22" edge="1">
          <mxGeometry width="50" height="50" relative="1" as="geometry">
            <mxPoint x="1320" y="750" as="sourcePoint" />
            <mxPoint x="1433" y="791" as="targetPoint" />
          </mxGeometry>
        </mxCell>
        <mxCell id="7tvb4L8AF0XeGwezENyy-21" value="&amp;lt;&amp;lt;include&amp;gt;&amp;gt;" style="endArrow=classic;html=1;rounded=0;fillColor=#f5f5f5;gradientColor=#b3b3b3;strokeColor=#666666;dashed=1;fontColor=#060606;align=center;labelBackgroundColor=none;entryX=0.325;entryY=0.938;entryDx=0;entryDy=0;entryPerimeter=0;exitX=0.73;exitY=0.075;exitDx=0;exitDy=0;exitPerimeter=0;" parent="1" source="yoxUfFOzrHix0iHAsxGL-26" target="7tvb4L8AF0XeGwezENyy-15" edge="1">
          <mxGeometry width="50" height="50" relative="1" as="geometry">
            <mxPoint x="1460" y="599.5" as="sourcePoint" />
            <mxPoint x="1573" y="640.5" as="targetPoint" />
          </mxGeometry>
        </mxCell>
        <mxCell id="7tvb4L8AF0XeGwezENyy-22" value="&lt;span style=&quot;font-size: 14px;&quot;&gt;Boost Longboard&lt;/span&gt;&lt;div&gt;&lt;span style=&quot;font-size: 14px;&quot;&gt;Motor Speed&lt;/span&gt;&lt;/div&gt;" style="ellipse;whiteSpace=wrap;html=1;fillColor=#ffcc99;strokeColor=#36393d;fontColor=#7EA6E0;" parent="1" vertex="1">
          <mxGeometry x="1120" y="800" width="200" height="80" as="geometry" />
        </mxCell>
        <mxCell id="7tvb4L8AF0XeGwezENyy-23" value="&lt;span style=&quot;font-size: 14px;&quot;&gt;Reduce Longboard&lt;/span&gt;&lt;div&gt;&lt;span style=&quot;font-size: 14px;&quot;&gt;Motor Speed&lt;/span&gt;&lt;/div&gt;" style="ellipse;whiteSpace=wrap;html=1;fillColor=#ffcc99;strokeColor=#36393d;fontColor=#7EA6E0;" parent="1" vertex="1">
          <mxGeometry x="1460" y="720" width="200" height="80" as="geometry" />
        </mxCell>
        <mxCell id="7tvb4L8AF0XeGwezENyy-24" value="&lt;span style=&quot;&quot;&gt;&amp;lt;&amp;lt;extend&amp;gt;&amp;gt;&lt;/span&gt;" style="endArrow=classic;html=1;rounded=0;fillColor=#f5f5f5;gradientColor=#b3b3b3;strokeColor=#666666;dashed=1;fontColor=#060606;align=center;labelBackgroundColor=none;entryX=0.71;entryY=0.963;entryDx=0;entryDy=0;entryPerimeter=0;exitX=0.415;exitY=0.013;exitDx=0;exitDy=0;exitPerimeter=0;" parent="1" source="7tvb4L8AF0XeGwezENyy-23" target="yoxUfFOzrHix0iHAsxGL-26" edge="1">
          <mxGeometry width="50" height="50" relative="1" as="geometry">
            <mxPoint x="1361" y="752" as="sourcePoint" />
            <mxPoint x="1210" y="680" as="targetPoint" />
          </mxGeometry>
        </mxCell>
        <mxCell id="7tvb4L8AF0XeGwezENyy-25" value="&lt;span style=&quot;&quot;&gt;&amp;lt;&amp;lt;extend&amp;gt;&amp;gt;&lt;/span&gt;" style="endArrow=classic;html=1;rounded=0;fillColor=#f5f5f5;gradientColor=#b3b3b3;strokeColor=#666666;dashed=1;fontColor=#060606;align=center;labelBackgroundColor=none;entryX=0.315;entryY=0.975;entryDx=0;entryDy=0;entryPerimeter=0;" parent="1" source="7tvb4L8AF0XeGwezENyy-22" target="yoxUfFOzrHix0iHAsxGL-21" edge="1">
          <mxGeometry x="-0.1644" y="2" width="50" height="50" relative="1" as="geometry">
            <mxPoint x="1241" y="684" as="sourcePoint" />
            <mxPoint x="1150" y="630" as="targetPoint" />
            <mxPoint as="offset" />
          </mxGeometry>
        </mxCell>
        <mxCell id="7tvb4L8AF0XeGwezENyy-26" value="&lt;font style=&quot;font-size: 14px;&quot;&gt;Command the VESC&lt;/font&gt;&lt;div&gt;&lt;font style=&quot;font-size: 14px;&quot;&gt;Controller&lt;/font&gt;&lt;/div&gt;" style="ellipse;whiteSpace=wrap;html=1;fillColor=#ffcc99;strokeColor=#36393d;fontColor=#7EA6E0;" parent="1" vertex="1">
          <mxGeometry x="720" y="770" width="200" height="80" as="geometry" />
        </mxCell>
        <mxCell id="7tvb4L8AF0XeGwezENyy-27" value="&amp;lt;&amp;lt;include&amp;gt;&amp;gt;" style="endArrow=classic;html=1;rounded=0;fillColor=#f5f5f5;gradientColor=#b3b3b3;strokeColor=#666666;dashed=1;fontColor=#060606;align=center;labelBackgroundColor=none;entryX=1;entryY=0;entryDx=0;entryDy=0;exitX=0.005;exitY=0.388;exitDx=0;exitDy=0;exitPerimeter=0;" parent="1" source="7tvb4L8AF0XeGwezENyy-23" target="7tvb4L8AF0XeGwezENyy-26" edge="1">
          <mxGeometry width="50" height="50" relative="1" as="geometry">
            <mxPoint x="1773" y="760" as="sourcePoint" />
            <mxPoint x="950" y="880" as="targetPoint" />
          </mxGeometry>
        </mxCell>
        <mxCell id="7tvb4L8AF0XeGwezENyy-28" value="&amp;lt;&amp;lt;include&amp;gt;&amp;gt;" style="endArrow=classic;html=1;rounded=0;fillColor=#f5f5f5;gradientColor=#b3b3b3;strokeColor=#666666;dashed=1;fontColor=#060606;align=center;labelBackgroundColor=none;entryX=0.935;entryY=0.775;entryDx=0;entryDy=0;exitX=0.015;exitY=0.425;exitDx=0;exitDy=0;exitPerimeter=0;entryPerimeter=0;" parent="1" source="7tvb4L8AF0XeGwezENyy-22" target="7tvb4L8AF0XeGwezENyy-26" edge="1">
          <mxGeometry width="50" height="50" relative="1" as="geometry">
            <mxPoint x="1590" y="840" as="sourcePoint" />
            <mxPoint x="1070" y="891" as="targetPoint" />
          </mxGeometry>
        </mxCell>
        <mxCell id="evu0XL8LpXfsouRHICf1-15" value="&lt;span style=&quot;&quot;&gt;&amp;lt;&amp;lt;extend&amp;gt;&amp;gt;&lt;/span&gt;" style="endArrow=classic;html=1;rounded=0;fillColor=#f5f5f5;gradientColor=#b3b3b3;strokeColor=#666666;dashed=1;fontColor=#060606;align=center;labelBackgroundColor=none;entryX=1;entryY=0.5;entryDx=0;entryDy=0;" edge="1" parent="1" source="yoxUfFOzrHix0iHAsxGL-21" target="7s3CR-tw4a0rpZwH6RRs-16">
          <mxGeometry width="50" height="50" relative="1" as="geometry">
            <mxPoint x="911" y="454" as="sourcePoint" />
            <mxPoint x="850" y="390" as="targetPoint" />
          </mxGeometry>
        </mxCell>
        <mxCell id="evu0XL8LpXfsouRHICf1-16" value="&lt;span style=&quot;&quot;&gt;&amp;lt;&amp;lt;extend&amp;gt;&amp;gt;&lt;/span&gt;" style="endArrow=classic;html=1;rounded=0;fillColor=#f5f5f5;gradientColor=#b3b3b3;strokeColor=#666666;dashed=1;fontColor=#060606;align=center;labelBackgroundColor=none;entryX=1;entryY=0.5;entryDx=0;entryDy=0;exitX=0.045;exitY=0.7;exitDx=0;exitDy=0;exitPerimeter=0;" edge="1" parent="1" source="yoxUfFOzrHix0iHAsxGL-26" target="7s3CR-tw4a0rpZwH6RRs-17">
          <mxGeometry width="50" height="50" relative="1" as="geometry">
            <mxPoint x="1270" y="690" as="sourcePoint" />
            <mxPoint x="720" y="690" as="targetPoint" />
          </mxGeometry>
        </mxCell>
      </root>
    </mxGraphModel>
  </diagram>
</mxfile>
